<svg id="Capa_1" enable-background="new 0 0 512 512" height="512" viewBox="0 0 512 512" width="512" xmlns="http://www.w3.org/2000/svg"><g><g fill="#5f55af"><path d="m76 392h180 180c8.284 0 15-6.716 15-15 0-8.286-6.716-15-15-15h-180-180c-8.284 0-15 6.714-15 15 0 8.284 6.716 15 15 15z"/><path d="m436 452h-180-180c-8.284 0-15 6.714-15 15 0 8.284 6.716 15 15 15h180 180c8.284 0 15-6.716 15-15 0-8.286-6.716-15-15-15z"/></g><path d="m451 377c0-8.286-6.716-15-15-15h-180v30h180c8.284 0 15-6.716 15-15z" fill="#453d83"/><path d="m451 467c0-8.286-6.716-15-15-15h-180v30h180c8.284 0 15-6.716 15-15z" fill="#453d83"/><path d="m436 0h-180-180c-8.291 0-15 6.709-15 15v272c0 8.291 6.709 15 15 15h180 180c8.291 0 15-6.709 15-15v-272c0-8.291-6.709-15-15-15z" fill="#edf5ff"/><path d="m451 287v-272c0-8.291-6.709-15-15-15h-180v302h180c8.291 0 15-6.709 15-15z" fill="#d5e8fe"/><path d="m256 30h-165v219.789l165-2.454 130.605-1.94 34.395-55.606v-159.789z" fill="#6aa9ff"/><path d="m421 189.789v-159.789h-165v217.335l130.605-1.94z" fill="#4895ff"/><path d="m166 332c-24.901 0-45 20.099-45 45 0 24.899 20.099 45 45 45s45-20.101 45-45c0-24.901-20.099-45-45-45z" fill="#fed843"/><path d="m356.605 125.395c-5.859-5.859-15.352-5.859-21.211 0l-79.394 79.394-30 30-49.395-49.395c-5.859-5.859-15.352-5.859-21.211 0l-64.394 64.395v22.211h165 165v-82.211z" fill="#97de3d"/><path d="m421 189.789-64.395-64.395c-5.859-5.859-15.352-5.859-21.211 0l-79.394 79.395v67.211h165z" fill="#59c36a"/><path d="m196 151c-24.814 0-45-20.186-45-45s20.186-45 45-45 45 20.186 45 45-20.186 45-45 45z" fill="#fed843"/><path d="m211 377c0 24.899-20.099 45-45 45v-90c24.901 0 45 20.099 45 45z" fill="#ff9f00"/><path d="m316 422c-24.901 0-45 20.099-45 45 0 24.899 20.099 45 45 45s45-20.101 45-45c0-24.901-20.099-45-45-45z" fill="#ff7b4a"/><path d="m361 467c0 24.899-20.099 45-45 45v-90c24.901 0 45 20.099 45 45z" fill="#e63950"/></g></svg>