<svg id="Capa_1" enable-background="new 0 0 497 497" height="512" viewBox="0 0 497 497" width="512" xmlns="http://www.w3.org/2000/svg"><g><path d="m90 7.5v67.5h317v-67.5c0-4.142-3.358-7.5-7.5-7.5h-302c-4.142 0-7.5 3.358-7.5 7.5z" fill="#3ec3ff"/><path d="m60 37.5v67.5h377v-67.5c0-4.142-3.358-7.5-7.5-7.5h-362c-4.142 0-7.5 3.358-7.5 7.5z" fill="#7ed7ff"/><path d="m30 67.5v67.5h437v-67.5c0-4.142-3.358-7.5-7.5-7.5h-422c-4.142 0-7.5 3.358-7.5 7.5z" fill="#bfebff"/><path d="m0 97.5v392c0 4.142 3.358 7.5 7.5 7.5h482c4.142 0 7.5-3.358 7.5-7.5v-392c0-4.142-3.358-7.5-7.5-7.5h-482c-4.142 0-7.5 3.358-7.5 7.5z" fill="#dff5ff"/><path d="m437 120-150 267.927h180v-267.927z" fill="#3ec3ff"/><path d="m30 120h407v267.927h-407z" fill="#7ed7ff"/><path d="m248.5 150v208c57.438 0 104-46.563 104-104s-46.563-104-104-104z" fill="#ff5178"/><path d="m322.5 254c0-57.438-33.131-104-74-104-57.438 0-104 46.563-104 104s46.563 104 104 104c40.869 0 74-46.562 74-104z" fill="#ff7169"/><path d="m112.054 307.667 88.789 86.442-170.843 72.891v-79.073z" fill="#09a1e5"/><path d="m467 387.927-30-29.344-30 93.417 60 15z" fill="#077ccc"/><path d="m384.946 307.667-88.789 86.442 140.843 43.543v-79.069z" fill="#09a1e5"/><path d="m467 467.001-30-.001-30-14.674 30-14.674z" fill="#89c247"/><path d="m437 437.652v29.348l-407.001.001 122.567-119.894 95.934-37.699 95.934 37.7z" fill="#b0d16f"/><path d="m248.5 253.266-95.938 93.845 48.281 46.998 47.657-45.133 47.657 45.133 48.277-47.001z" fill="#fff"/></g></svg>